<mxfile host="65bd71144e" scale="5" border="0">
    <diagram id="UTlIMfPxAq2fHqrGq6l2" name="Page-1">
        <mxGraphModel dx="-210" dy="396" grid="1" gridSize="10" guides="1" tooltips="1" connect="1" arrows="1" fold="1" page="1" pageScale="1" pageWidth="827" pageHeight="1169" math="0" shadow="0">
            <root>
                <mxCell id="0"/>
                <mxCell id="1" parent="0"/>
                <mxCell id="2" value="Explainable AI" style="rounded=0;fontSize=10;html=1;" parent="1" vertex="1">
                    <mxGeometry x="1100" y="538" width="110" height="30" as="geometry"/>
                </mxCell>
                <mxCell id="3" value="" style="rounded=0;orthogonalLoop=1;jettySize=auto;exitX=1;exitY=0.5;exitDx=0;exitDy=0;entryX=0;entryY=0.5;entryDx=0;entryDy=0;endArrow=none;endFill=0;fontSize=10;html=1;edgeStyle=orthogonalEdgeStyle;" parent="1" source="5" target="10" edge="1">
                    <mxGeometry relative="1" as="geometry"/>
                </mxCell>
                <mxCell id="4" value="" style="rounded=0;orthogonalLoop=1;jettySize=auto;exitX=1;exitY=0.5;exitDx=0;exitDy=0;entryX=0;entryY=0.5;entryDx=0;entryDy=0;endArrow=none;endFill=0;fontSize=10;html=1;edgeStyle=orthogonalEdgeStyle;" parent="1" source="5" target="15" edge="1">
                    <mxGeometry relative="1" as="geometry"/>
                </mxCell>
                <mxCell id="5" value="Post-Hoc Explanation" style="rounded=0;fontSize=10;html=1;" parent="1" vertex="1">
                    <mxGeometry x="1250" y="420" width="110" height="30" as="geometry"/>
                </mxCell>
                <mxCell id="6" value="" style="rounded=0;orthogonalLoop=1;jettySize=auto;exitX=1;exitY=0.5;exitDx=0;exitDy=0;entryX=0;entryY=0.5;entryDx=0;entryDy=0;endArrow=none;endFill=0;fontSize=10;html=1;edgeStyle=orthogonalEdgeStyle;" parent="1" source="10" target="34" edge="1">
                    <mxGeometry relative="1" as="geometry"/>
                </mxCell>
                <mxCell id="7" value="" style="rounded=0;orthogonalLoop=1;jettySize=auto;exitX=1;exitY=0.5;exitDx=0;exitDy=0;entryX=0;entryY=0.5;entryDx=0;entryDy=0;endArrow=none;endFill=0;fontSize=10;html=1;edgeStyle=orthogonalEdgeStyle;" parent="1" source="10" target="35" edge="1">
                    <mxGeometry relative="1" as="geometry"/>
                </mxCell>
                <mxCell id="8" value="" style="rounded=0;orthogonalLoop=1;jettySize=auto;exitX=1;exitY=0.5;exitDx=0;exitDy=0;entryX=0;entryY=0.5;entryDx=0;entryDy=0;endArrow=none;endFill=0;fontSize=10;html=1;edgeStyle=orthogonalEdgeStyle;" parent="1" source="10" target="36" edge="1">
                    <mxGeometry relative="1" as="geometry"/>
                </mxCell>
                <mxCell id="9" value="" style="rounded=0;orthogonalLoop=1;jettySize=auto;exitX=1;exitY=0.5;exitDx=0;exitDy=0;entryX=0;entryY=0.5;entryDx=0;entryDy=0;endArrow=none;endFill=0;fontSize=10;html=1;edgeStyle=orthogonalEdgeStyle;" parent="1" source="10" target="37" edge="1">
                    <mxGeometry relative="1" as="geometry"/>
                </mxCell>
                <mxCell id="10" value="Model-Specific &lt;br&gt;Methods" style="rounded=0;fontSize=10;html=1;" parent="1" vertex="1">
                    <mxGeometry x="1400" y="310" width="110" height="30" as="geometry"/>
                </mxCell>
                <mxCell id="11" value="Build Interpretable &lt;br&gt;Model" style="rounded=0;fontSize=10;html=1;" parent="1" vertex="1">
                    <mxGeometry x="1250" y="650" width="110" height="30" as="geometry"/>
                </mxCell>
                <mxCell id="12" value="" style="rounded=0;orthogonalLoop=1;jettySize=auto;exitX=1;exitY=0.5;exitDx=0;exitDy=0;entryX=0;entryY=0.5;entryDx=0;entryDy=0;endArrow=none;endFill=0;fontSize=10;html=1;edgeStyle=orthogonalEdgeStyle;" parent="1" source="15" target="18" edge="1">
                    <mxGeometry relative="1" as="geometry"/>
                </mxCell>
                <mxCell id="13" value="" style="rounded=0;orthogonalLoop=1;jettySize=auto;exitX=1;exitY=0.5;exitDx=0;exitDy=0;entryX=0;entryY=0.5;entryDx=0;entryDy=0;endArrow=none;endFill=0;fontSize=10;html=1;edgeStyle=orthogonalEdgeStyle;" parent="1" source="15" target="16" edge="1">
                    <mxGeometry relative="1" as="geometry"/>
                </mxCell>
                <mxCell id="14" value="" style="rounded=0;orthogonalLoop=1;jettySize=auto;exitX=1;exitY=0.5;exitDx=0;exitDy=0;entryX=0;entryY=0.5;entryDx=0;entryDy=0;endArrow=none;endFill=0;fontSize=10;html=1;edgeStyle=orthogonalEdgeStyle;" parent="1" source="15" target="17" edge="1">
                    <mxGeometry relative="1" as="geometry"/>
                </mxCell>
                <mxCell id="15" value="Model-Agnostic &lt;br&gt;Methods" style="rounded=0;fontSize=10;html=1;" parent="1" vertex="1">
                    <mxGeometry x="1400" y="538" width="110" height="30" as="geometry"/>
                </mxCell>
                <mxCell id="16" value="Explain by &lt;br&gt;Simplification" style="rounded=0;fontSize=10;html=1;" parent="1" vertex="1">
                    <mxGeometry x="1550" y="675" width="110" height="30" as="geometry"/>
                </mxCell>
                <mxCell id="17" value="Explain by Feature &lt;br&gt;Importance&amp;nbsp;" style="rounded=0;fontSize=10;html=1;" parent="1" vertex="1">
                    <mxGeometry x="1550" y="420" width="110" height="30" as="geometry"/>
                </mxCell>
                <mxCell id="18" value="Explain by &lt;br&gt;Visualization&amp;nbsp;" style="rounded=0;fontSize=10;html=1;" parent="1" vertex="1">
                    <mxGeometry x="1550" y="538" width="110" height="30" as="geometry"/>
                </mxCell>
                <mxCell id="19" value="" style="rounded=0;orthogonalLoop=1;jettySize=auto;exitX=1;exitY=0.5;exitDx=0;exitDy=0;entryX=0;entryY=0.5;entryDx=0;entryDy=0;endArrow=none;endFill=0;fontSize=10;html=1;edgeStyle=orthogonalEdgeStyle;" parent="1" source="21" target="41" edge="1">
                    <mxGeometry relative="1" as="geometry"/>
                </mxCell>
                <mxCell id="20" value="" style="rounded=0;orthogonalLoop=1;jettySize=auto;exitX=1;exitY=0.5;exitDx=0;exitDy=0;entryX=0;entryY=0.5;entryDx=0;entryDy=0;endArrow=none;endFill=0;fontSize=10;html=1;edgeStyle=orthogonalEdgeStyle;" parent="1" source="21" target="43" edge="1">
                    <mxGeometry relative="1" as="geometry"/>
                </mxCell>
                <mxCell id="21" value="Feature Masking" style="rounded=0;fontSize=10;html=1;" parent="1" vertex="1">
                    <mxGeometry x="1700" y="290" width="110" height="30" as="geometry"/>
                </mxCell>
                <mxCell id="22" value="" style="rounded=0;orthogonalLoop=1;jettySize=auto;exitX=1;exitY=0.5;exitDx=0;exitDy=0;entryX=0;entryY=0.5;entryDx=0;entryDy=0;endArrow=none;endFill=0;fontSize=10;html=1;edgeStyle=orthogonalEdgeStyle;" parent="1" source="26" target="68" edge="1">
                    <mxGeometry relative="1" as="geometry"/>
                </mxCell>
                <mxCell id="23" value="" style="rounded=0;orthogonalLoop=1;jettySize=auto;exitX=1;exitY=0.5;exitDx=0;exitDy=0;entryX=0;entryY=0.5;entryDx=0;entryDy=0;endArrow=none;endFill=0;fontSize=10;html=1;edgeStyle=orthogonalEdgeStyle;" parent="1" source="26" target="69" edge="1">
                    <mxGeometry relative="1" as="geometry"/>
                </mxCell>
                <mxCell id="24" value="" style="rounded=0;orthogonalLoop=1;jettySize=auto;exitX=1;exitY=0.5;exitDx=0;exitDy=0;entryX=0;entryY=0.5;entryDx=0;entryDy=0;endArrow=none;endFill=0;fontSize=10;html=1;edgeStyle=orthogonalEdgeStyle;" parent="1" source="26" target="67" edge="1">
                    <mxGeometry relative="1" as="geometry"/>
                </mxCell>
                <mxCell id="25" value="" style="rounded=0;orthogonalLoop=1;jettySize=auto;exitX=1;exitY=0.5;exitDx=0;exitDy=0;entryX=0;entryY=0.5;entryDx=0;entryDy=0;endArrow=none;endFill=0;fontSize=10;html=1;edgeStyle=orthogonalEdgeStyle;" parent="1" source="26" target="66" edge="1">
                    <mxGeometry relative="1" as="geometry"/>
                </mxCell>
                <mxCell id="26" value="Feature Mutation" style="rounded=0;fontSize=10;html=1;" parent="1" vertex="1">
                    <mxGeometry x="1700" y="420" width="110" height="30" as="geometry"/>
                </mxCell>
                <mxCell id="27" value="Accumulated &lt;br&gt;Local Effects (ALE)*" style="rounded=0;fontSize=10;html=1;" parent="1" vertex="1">
                    <mxGeometry x="1700" y="560" width="110" height="30" as="geometry"/>
                </mxCell>
                <mxCell id="28" value="Rule-based Learner" style="rounded=0;fontSize=10;html=1;" parent="1" vertex="1">
                    <mxGeometry x="1700" y="655" width="110" height="30" as="geometry"/>
                </mxCell>
                <mxCell id="29" value="Partial Dependence &lt;br&gt;Plot (PDP)*" style="rounded=0;fontSize=10;html=1;" parent="1" vertex="1">
                    <mxGeometry x="1700" y="470" width="110" height="30" as="geometry"/>
                </mxCell>
                <mxCell id="30" value="Linear Regression" style="rounded=0;fontSize=10;html=1;" parent="1" vertex="1">
                    <mxGeometry x="1400" y="590" width="110" height="30" as="geometry"/>
                </mxCell>
                <mxCell id="31" value="Decision Tree" style="rounded=0;fontSize=10;html=1;" parent="1" vertex="1">
                    <mxGeometry x="1400" y="670" width="110" height="30" as="geometry"/>
                </mxCell>
                <mxCell id="32" value="Logistic Regression" style="rounded=0;fontSize=10;html=1;" parent="1" vertex="1">
                    <mxGeometry x="1400" y="630" width="110" height="30" as="geometry"/>
                </mxCell>
                <mxCell id="33" value="K-Nearest Neighbors" style="rounded=0;fontSize=10;html=1;" parent="1" vertex="1">
                    <mxGeometry x="1400" y="710" width="110" height="30" as="geometry"/>
                </mxCell>
                <mxCell id="34" value="Support Vector &lt;br&gt;Machines*" style="rounded=0;fontSize=10;html=1;" parent="1" vertex="1">
                    <mxGeometry x="1550" y="250" width="110" height="30" as="geometry"/>
                </mxCell>
                <mxCell id="35" value="Recurrent Neural &lt;br&gt;Network*" style="rounded=0;fontSize=10;html=1;" parent="1" vertex="1">
                    <mxGeometry x="1550" y="290" width="110" height="30" as="geometry"/>
                </mxCell>
                <mxCell id="36" value="Convolutional Neural&lt;br&gt;Network*" style="rounded=0;fontSize=10;html=1;" parent="1" vertex="1">
                    <mxGeometry x="1550" y="330" width="110" height="30" as="geometry"/>
                </mxCell>
                <mxCell id="37" value="Deep Networks*" style="rounded=0;fontSize=10;html=1;" parent="1" vertex="1">
                    <mxGeometry x="1550" y="370" width="110" height="30" as="geometry"/>
                </mxCell>
                <mxCell id="38" value="Individual Conditional &lt;br&gt;Expectation (ICE)*" style="rounded=0;fontSize=10;html=1;" parent="1" vertex="1">
                    <mxGeometry x="1700" y="515" width="110" height="30" as="geometry"/>
                </mxCell>
                <mxCell id="39" value="Decision Set*" style="rounded=0;fontSize=10;html=1;" parent="1" vertex="1">
                    <mxGeometry x="1850" y="615" width="110" height="30" as="geometry"/>
                </mxCell>
                <mxCell id="40" value="Bayesian Analysis*" style="rounded=0;fontSize=10;html=1;" parent="1" vertex="1">
                    <mxGeometry x="1850" y="655" width="110" height="30" as="geometry"/>
                </mxCell>
                <mxCell id="41" value="Shapley Value*" style="rounded=0;fontSize=10;html=1;" parent="1" vertex="1">
                    <mxGeometry x="1850" y="270" width="110" height="30" as="geometry"/>
                </mxCell>
                <mxCell id="42" value="Saliency Map*" style="rounded=0;fontSize=10;html=1;" parent="1" vertex="1">
                    <mxGeometry x="1700" y="600" width="110" height="30" as="geometry"/>
                </mxCell>
                <mxCell id="43" value="SHAP*" style="rounded=0;fontSize=10;html=1;" parent="1" vertex="1">
                    <mxGeometry x="1850" y="310" width="110" height="30" as="geometry"/>
                </mxCell>
                <mxCell id="44" value="Additional Interpretable &lt;br&gt;Model" style="rounded=0;fontSize=10;html=1;" parent="1" vertex="1">
                    <mxGeometry x="1700" y="695" width="110" height="30" as="geometry"/>
                </mxCell>
                <mxCell id="45" value="LIME*" style="rounded=0;fontSize=10;html=1;" parent="1" vertex="1">
                    <mxGeometry x="1850" y="695" width="110" height="30" as="geometry"/>
                </mxCell>
                <mxCell id="46" value="Anchors*" style="rounded=0;fontSize=10;html=1;" parent="1" vertex="1">
                    <mxGeometry x="1850" y="735" width="110" height="30" as="geometry"/>
                </mxCell>
                <mxCell id="47" value="" style="endArrow=none;fontFamily=Helvetica;fontSize=10;fontColor=default;entryX=0;entryY=0.5;entryDx=0;entryDy=0;exitX=1;exitY=0.5;exitDx=0;exitDy=0;rounded=0;html=1;edgeStyle=orthogonalEdgeStyle;" parent="1" source="2" target="5" edge="1">
                    <mxGeometry width="50" height="50" relative="1" as="geometry">
                        <mxPoint x="1180" y="450" as="sourcePoint"/>
                        <mxPoint x="1230" y="400" as="targetPoint"/>
                    </mxGeometry>
                </mxCell>
                <mxCell id="48" value="" style="endArrow=none;fontFamily=Helvetica;fontSize=10;fontColor=default;exitX=1;exitY=0.5;exitDx=0;exitDy=0;entryX=0;entryY=0.5;entryDx=0;entryDy=0;rounded=0;html=1;edgeStyle=orthogonalEdgeStyle;" parent="1" source="2" target="11" edge="1">
                    <mxGeometry width="50" height="50" relative="1" as="geometry">
                        <mxPoint x="1200" y="640" as="sourcePoint"/>
                        <mxPoint x="1250" y="590" as="targetPoint"/>
                    </mxGeometry>
                </mxCell>
                <mxCell id="49" value="" style="endArrow=none;fontFamily=Helvetica;fontSize=10;fontColor=default;entryX=0;entryY=0.5;entryDx=0;entryDy=0;exitX=1;exitY=0.5;exitDx=0;exitDy=0;rounded=0;html=1;edgeStyle=orthogonalEdgeStyle;" parent="1" source="11" target="30" edge="1">
                    <mxGeometry width="50" height="50" relative="1" as="geometry">
                        <mxPoint x="1320" y="650" as="sourcePoint"/>
                        <mxPoint x="1370" y="600" as="targetPoint"/>
                    </mxGeometry>
                </mxCell>
                <mxCell id="50" value="" style="endArrow=none;fontFamily=Helvetica;fontSize=10;fontColor=default;entryX=0;entryY=0.5;entryDx=0;entryDy=0;exitX=1;exitY=0.5;exitDx=0;exitDy=0;rounded=0;html=1;edgeStyle=orthogonalEdgeStyle;" parent="1" source="11" target="32" edge="1">
                    <mxGeometry width="50" height="50" relative="1" as="geometry">
                        <mxPoint x="1310" y="780" as="sourcePoint"/>
                        <mxPoint x="1360" y="730" as="targetPoint"/>
                    </mxGeometry>
                </mxCell>
                <mxCell id="51" value="" style="endArrow=none;fontFamily=Helvetica;fontSize=10;fontColor=default;entryX=0;entryY=0.5;entryDx=0;entryDy=0;exitX=1;exitY=0.5;exitDx=0;exitDy=0;rounded=0;html=1;edgeStyle=orthogonalEdgeStyle;" parent="1" source="11" target="31" edge="1">
                    <mxGeometry width="50" height="50" relative="1" as="geometry">
                        <mxPoint x="1320" y="780" as="sourcePoint"/>
                        <mxPoint x="1370" y="730" as="targetPoint"/>
                    </mxGeometry>
                </mxCell>
                <mxCell id="52" value="" style="endArrow=none;fontFamily=Helvetica;fontSize=10;fontColor=default;entryX=0;entryY=0.5;entryDx=0;entryDy=0;exitX=1;exitY=0.5;exitDx=0;exitDy=0;rounded=0;html=1;edgeStyle=orthogonalEdgeStyle;" parent="1" source="11" target="33" edge="1">
                    <mxGeometry width="50" height="50" relative="1" as="geometry">
                        <mxPoint x="1250" y="800" as="sourcePoint"/>
                        <mxPoint x="1300" y="750" as="targetPoint"/>
                    </mxGeometry>
                </mxCell>
                <mxCell id="53" value="" style="endArrow=none;fontFamily=Helvetica;fontSize=10;fontColor=default;entryX=0;entryY=0.5;entryDx=0;entryDy=0;exitX=1;exitY=0.5;exitDx=0;exitDy=0;rounded=0;html=1;edgeStyle=orthogonalEdgeStyle;" parent="1" source="18" target="29" edge="1">
                    <mxGeometry width="50" height="50" relative="1" as="geometry">
                        <mxPoint x="1650" y="655" as="sourcePoint"/>
                        <mxPoint x="1700" y="605" as="targetPoint"/>
                    </mxGeometry>
                </mxCell>
                <mxCell id="54" value="" style="endArrow=none;fontFamily=Helvetica;fontSize=10;fontColor=default;entryX=0;entryY=0.5;entryDx=0;entryDy=0;exitX=1;exitY=0.5;exitDx=0;exitDy=0;rounded=0;html=1;edgeStyle=orthogonalEdgeStyle;" parent="1" source="18" target="38" edge="1">
                    <mxGeometry width="50" height="50" relative="1" as="geometry">
                        <mxPoint x="1630" y="745" as="sourcePoint"/>
                        <mxPoint x="1680" y="695" as="targetPoint"/>
                    </mxGeometry>
                </mxCell>
                <mxCell id="55" value="" style="endArrow=none;fontFamily=Helvetica;fontSize=10;fontColor=default;entryX=0;entryY=0.5;entryDx=0;entryDy=0;exitX=1;exitY=0.5;exitDx=0;exitDy=0;rounded=0;html=1;edgeStyle=orthogonalEdgeStyle;" parent="1" source="18" target="27" edge="1">
                    <mxGeometry width="50" height="50" relative="1" as="geometry">
                        <mxPoint x="1590" y="735" as="sourcePoint"/>
                        <mxPoint x="1640" y="685" as="targetPoint"/>
                    </mxGeometry>
                </mxCell>
                <mxCell id="56" value="" style="endArrow=none;fontFamily=Helvetica;fontSize=10;fontColor=default;entryX=0;entryY=0.5;entryDx=0;entryDy=0;exitX=1;exitY=0.5;exitDx=0;exitDy=0;rounded=0;html=1;edgeStyle=orthogonalEdgeStyle;" parent="1" source="18" target="42" edge="1">
                    <mxGeometry width="50" height="50" relative="1" as="geometry">
                        <mxPoint x="1620" y="745" as="sourcePoint"/>
                        <mxPoint x="1670" y="695" as="targetPoint"/>
                    </mxGeometry>
                </mxCell>
                <mxCell id="57" value="" style="endArrow=none;fontFamily=Helvetica;fontSize=10;fontColor=default;entryX=0;entryY=0.5;entryDx=0;entryDy=0;exitX=1;exitY=0.5;exitDx=0;exitDy=0;rounded=0;html=1;edgeStyle=orthogonalEdgeStyle;" parent="1" source="16" target="28" edge="1">
                    <mxGeometry width="50" height="50" relative="1" as="geometry">
                        <mxPoint x="1620" y="785" as="sourcePoint"/>
                        <mxPoint x="1670" y="735" as="targetPoint"/>
                    </mxGeometry>
                </mxCell>
                <mxCell id="58" value="" style="endArrow=none;fontFamily=Helvetica;fontSize=10;fontColor=default;entryX=0;entryY=0.5;entryDx=0;entryDy=0;exitX=1;exitY=0.5;exitDx=0;exitDy=0;rounded=0;html=1;edgeStyle=orthogonalEdgeStyle;" parent="1" source="28" target="39" edge="1">
                    <mxGeometry width="50" height="50" relative="1" as="geometry">
                        <mxPoint x="1600" y="785" as="sourcePoint"/>
                        <mxPoint x="1650" y="735" as="targetPoint"/>
                    </mxGeometry>
                </mxCell>
                <mxCell id="59" value="" style="endArrow=none;fontFamily=Helvetica;fontSize=10;fontColor=default;entryX=0;entryY=0.5;entryDx=0;entryDy=0;exitX=1;exitY=0.5;exitDx=0;exitDy=0;rounded=0;html=1;edgeStyle=orthogonalEdgeStyle;" parent="1" source="28" target="40" edge="1">
                    <mxGeometry width="50" height="50" relative="1" as="geometry">
                        <mxPoint x="1620" y="785" as="sourcePoint"/>
                        <mxPoint x="1670" y="735" as="targetPoint"/>
                    </mxGeometry>
                </mxCell>
                <mxCell id="60" value="" style="endArrow=none;fontFamily=Helvetica;fontSize=10;fontColor=default;entryX=0;entryY=0.5;entryDx=0;entryDy=0;exitX=1;exitY=0.5;exitDx=0;exitDy=0;rounded=0;html=1;edgeStyle=orthogonalEdgeStyle;" parent="1" source="16" target="44" edge="1">
                    <mxGeometry width="50" height="50" relative="1" as="geometry">
                        <mxPoint x="1600" y="775" as="sourcePoint"/>
                        <mxPoint x="1650" y="725" as="targetPoint"/>
                    </mxGeometry>
                </mxCell>
                <mxCell id="61" value="" style="endArrow=none;fontFamily=Helvetica;fontSize=10;fontColor=default;entryX=0;entryY=0.5;entryDx=0;entryDy=0;exitX=1;exitY=0.5;exitDx=0;exitDy=0;rounded=0;html=1;edgeStyle=orthogonalEdgeStyle;" parent="1" source="44" target="45" edge="1">
                    <mxGeometry width="50" height="50" relative="1" as="geometry">
                        <mxPoint x="1690" y="815" as="sourcePoint"/>
                        <mxPoint x="1740" y="765" as="targetPoint"/>
                    </mxGeometry>
                </mxCell>
                <mxCell id="62" value="" style="endArrow=none;fontFamily=Helvetica;fontSize=10;fontColor=default;entryX=0;entryY=0.5;entryDx=0;entryDy=0;exitX=1;exitY=0.5;exitDx=0;exitDy=0;rounded=0;html=1;edgeStyle=orthogonalEdgeStyle;" parent="1" source="44" target="46" edge="1">
                    <mxGeometry width="50" height="50" relative="1" as="geometry">
                        <mxPoint x="1630" y="795" as="sourcePoint"/>
                        <mxPoint x="1680" y="745" as="targetPoint"/>
                    </mxGeometry>
                </mxCell>
                <mxCell id="63" value="" style="endArrow=none;fontFamily=Helvetica;fontSize=10;fontColor=default;entryX=0;entryY=0.5;entryDx=0;entryDy=0;exitX=1;exitY=0.5;exitDx=0;exitDy=0;rounded=0;html=1;edgeStyle=orthogonalEdgeStyle;" parent="1" source="17" target="21" edge="1">
                    <mxGeometry width="50" height="50" relative="1" as="geometry">
                        <mxPoint x="1610" y="430" as="sourcePoint"/>
                        <mxPoint x="1660" y="380" as="targetPoint"/>
                    </mxGeometry>
                </mxCell>
                <mxCell id="64" value="" style="endArrow=none;fontFamily=Helvetica;fontSize=10;fontColor=default;entryX=0;entryY=0.5;entryDx=0;entryDy=0;exitX=1;exitY=0.5;exitDx=0;exitDy=0;rounded=0;html=1;edgeStyle=orthogonalEdgeStyle;" parent="1" source="17" target="26" edge="1">
                    <mxGeometry width="50" height="50" relative="1" as="geometry">
                        <mxPoint x="1610" y="470" as="sourcePoint"/>
                        <mxPoint x="1660" y="420" as="targetPoint"/>
                    </mxGeometry>
                </mxCell>
                <mxCell id="65" value="" style="group" parent="1" vertex="1" connectable="0">
                    <mxGeometry x="1850" y="360" width="110" height="150" as="geometry"/>
                </mxCell>
                <mxCell id="66" value="Accumulated &lt;br&gt;Local Effects (ALE)*" style="rounded=0;fontSize=10;html=1;" parent="65" vertex="1">
                    <mxGeometry y="120" width="110" height="30" as="geometry"/>
                </mxCell>
                <mxCell id="67" value="Partial Dependence &lt;br&gt;Plot (PDP)*" style="rounded=0;fontSize=10;html=1;" parent="65" vertex="1">
                    <mxGeometry y="80" width="110" height="30" as="geometry"/>
                </mxCell>
                <mxCell id="68" value="Anchors*" style="rounded=0;fontSize=10;html=1;" parent="65" vertex="1">
                    <mxGeometry width="110" height="30" as="geometry"/>
                </mxCell>
                <mxCell id="69" value="LIME*" style="rounded=0;fontSize=10;html=1;" parent="65" vertex="1">
                    <mxGeometry y="40" width="110" height="30" as="geometry"/>
                </mxCell>
            </root>
        </mxGraphModel>
    </diagram>
</mxfile>